<svg width="31" height="31" viewBox="0 0 31 31" fill="none" xmlns="http://www.w3.org/2000/svg">
<path fill-rule="evenodd" clip-rule="evenodd" d="M11.5149 10.802H17.2716V13.6694C18.1009 12.0203 20.2275 10.5385 23.422 10.5385C29.5461 10.5385 31 13.8214 31 19.8447V31H24.8V21.2164C24.8 17.7862 23.9708 15.8518 21.8596 15.8518C18.9317 15.8518 17.7149 17.9366 17.7149 21.2148V31H11.5149V10.802ZM0.8835 30.7365H7.0835V10.5385H0.8835V30.7365ZM7.97165 3.9525C7.97188 4.47218 7.86882 4.98671 7.66845 5.46621C7.46808 5.94571 7.17441 6.3806 6.8045 6.7456C6.05492 7.49057 5.04031 7.90756 3.9835 7.905C2.92855 7.90429 1.91628 7.48836 1.1656 6.74715C0.797028 6.3809 0.504348 5.94553 0.304333 5.46597C0.104317 4.98641 0.000897654 4.4721 0 3.9525C0 2.90315 0.4185 1.89875 1.16715 1.15785C1.91717 0.415646 2.92987 -0.000463777 3.98505 3.8791e-07C5.04215 3.8791e-07 6.05585 0.41695 6.8045 1.15785C7.5516 1.89875 7.97165 2.90315 7.97165 3.9525Z" fill="currentColor"/>
<defs>
</defs>
</svg>
