<svg width="44" height="44" viewBox="0 0 44 44" fill="none" xmlns="http://www.w3.org/2000/svg">
<path d="M14.6673 11C14.6673 11.9725 14.281 12.9051 13.5934 13.5928C12.9057 14.2804 11.9731 14.6667 11.0007 14.6667C10.0282 14.6667 9.09556 14.2804 8.40793 13.5928C7.72029 12.9051 7.33398 11.9725 7.33398 11C7.33398 10.0276 7.72029 9.09495 8.40793 8.40732C9.09556 7.71968 10.0282 7.33337 11.0007 7.33337C11.9731 7.33337 12.9057 7.71968 13.5934 8.40732C14.281 9.09495 14.6673 10.0276 14.6673 11ZM14.6673 22C14.6673 22.9725 14.281 23.9051 13.5934 24.5928C12.9057 25.2804 11.9731 25.6667 11.0007 25.6667C10.0282 25.6667 9.09556 25.2804 8.40793 24.5928C7.72029 23.9051 7.33398 22.9725 7.33398 22C7.33398 21.0276 7.72029 20.0949 8.40793 19.4073C9.09556 18.7197 10.0282 18.3334 11.0007 18.3334C11.9731 18.3334 12.9057 18.7197 13.5934 19.4073C14.281 20.0949 14.6673 21.0276 14.6673 22ZM11.0007 36.6667C11.9731 36.6667 12.9057 36.2804 13.5934 35.5928C14.281 34.9051 14.6673 33.9725 14.6673 33C14.6673 32.0276 14.281 31.0949 13.5934 30.4073C12.9057 29.7197 11.9731 29.3334 11.0007 29.3334C10.0282 29.3334 9.09556 29.7197 8.40793 30.4073C7.72029 31.0949 7.33398 32.0276 7.33398 33C7.33398 33.9725 7.72029 34.9051 8.40793 35.5928C9.09556 36.2804 10.0282 36.6667 11.0007 36.6667ZM25.6673 11C25.6673 11.9725 25.281 12.9051 24.5934 13.5928C23.9057 14.2804 22.9731 14.6667 22.0007 14.6667C21.0282 14.6667 20.0956 14.2804 19.4079 13.5928C18.7203 12.9051 18.334 11.9725 18.334 11C18.334 10.0276 18.7203 9.09495 19.4079 8.40732C20.0956 7.71968 21.0282 7.33337 22.0007 7.33337C22.9731 7.33337 23.9057 7.71968 24.5934 8.40732C25.281 9.09495 25.6673 10.0276 25.6673 11ZM22.0007 25.6667C22.9731 25.6667 23.9057 25.2804 24.5934 24.5928C25.281 23.9051 25.6673 22.9725 25.6673 22C25.6673 21.0276 25.281 20.0949 24.5934 19.4073C23.9057 18.7197 22.9731 18.3334 22.0007 18.3334C21.0282 18.3334 20.0956 18.7197 19.4079 19.4073C18.7203 20.0949 18.334 21.0276 18.334 22C18.334 22.9725 18.7203 23.9051 19.4079 24.5928C20.0956 25.2804 21.0282 25.6667 22.0007 25.6667ZM25.6673 33C25.6673 33.9725 25.281 34.9051 24.5934 35.5928C23.9057 36.2804 22.9731 36.6667 22.0007 36.6667C21.0282 36.6667 20.0956 36.2804 19.4079 35.5928C18.7203 34.9051 18.334 33.9725 18.334 33C18.334 32.0276 18.7203 31.0949 19.4079 30.4073C20.0956 29.7197 21.0282 29.3334 22.0007 29.3334C22.9731 29.3334 23.9057 29.7197 24.5934 30.4073C25.281 31.0949 25.6673 32.0276 25.6673 33ZM33.0007 14.6667C33.9731 14.6667 34.9057 14.2804 35.5934 13.5928C36.281 12.9051 36.6673 11.9725 36.6673 11C36.6673 10.0276 36.281 9.09495 35.5934 8.40732C34.9057 7.71968 33.9731 7.33337 33.0007 7.33337C32.0282 7.33337 31.0956 7.71968 30.4079 8.40732C29.7203 9.09495 29.334 10.0276 29.334 11C29.334 11.9725 29.7203 12.9051 30.4079 13.5928C31.0956 14.2804 32.0282 14.6667 33.0007 14.6667ZM36.6673 22C36.6673 22.9725 36.281 23.9051 35.5934 24.5928C34.9057 25.2804 33.9731 25.6667 33.0007 25.6667C32.0282 25.6667 31.0956 25.2804 30.4079 24.5928C29.7203 23.9051 29.334 22.9725 29.334 22C29.334 21.0276 29.7203 20.0949 30.4079 19.4073C31.0956 18.7197 32.0282 18.3334 33.0007 18.3334C33.9731 18.3334 34.9057 18.7197 35.5934 19.4073C36.281 20.0949 36.6673 21.0276 36.6673 22ZM33.0007 36.6667C33.9731 36.6667 34.9057 36.2804 35.5934 35.5928C36.281 34.9051 36.6673 33.9725 36.6673 33C36.6673 32.0276 36.281 31.0949 35.5934 30.4073C34.9057 29.7197 33.9731 29.3334 33.0007 29.3334C32.0282 29.3334 31.0956 29.7197 30.4079 30.4073C29.7203 31.0949 29.334 32.0276 29.334 33C29.334 33.9725 29.7203 34.9051 30.4079 35.5928C31.0956 36.2804 32.0282 36.6667 33.0007 36.6667Z" fill="white"/>
</svg>
