<svg width="41" height="42" viewBox="0 0 41 42" fill="none" xmlns="http://www.w3.org/2000/svg">
<g clip-path="url(#clip0_2694_3902)">
<path d="M12.8982 38.0628C28.3661 38.0628 36.8287 24.932 36.8287 13.5486C36.8287 13.1794 36.8207 12.8021 36.8047 12.4329C38.451 11.2134 39.8716 9.70275 41 7.97208C39.4668 8.67086 37.839 9.12722 36.1721 9.32559C37.9272 8.24789 39.2413 6.55488 39.8709 4.5604C38.2198 5.56278 36.4141 6.26988 34.5313 6.65137C33.2627 5.27054 31.5854 4.35626 29.7586 4.04989C27.9319 3.74353 26.0575 4.06214 24.4253 4.95647C22.7931 5.8508 21.4939 7.27104 20.7287 8.9976C19.9634 10.7242 19.7747 12.6609 20.1917 14.5083C16.8484 14.3365 13.5777 13.4468 10.5916 11.897C7.60555 10.3472 4.97073 8.17182 2.85799 5.51196C1.78418 7.40848 1.4556 9.65268 1.93901 11.7885C2.42243 13.9242 3.68157 15.7913 5.46053 17.0103C4.12499 16.9668 2.81871 16.5985 1.64961 15.9357V16.0423C1.64841 18.0326 2.32008 19.9618 3.55045 21.5022C4.78081 23.0425 6.49393 24.0988 8.39859 24.4915C7.16143 24.8383 5.86297 24.8888 4.60369 24.6392C5.14115 26.3508 6.18685 27.8479 7.59486 28.9214C9.00286 29.9949 10.7029 30.5914 12.4578 30.6275C9.47856 33.0247 5.79838 34.325 2.00996 34.3189C1.33812 34.3178 0.666932 34.2756 0 34.1925C3.84863 36.7219 8.32562 38.0652 12.8982 38.0628Z" fill="currentColor"/>
</g>
<defs>
<clipPath id="clip0_2694_3902">
<rect width="41" height="42" fill="white"/>
</clipPath>
</defs>
</svg>
